<svg xmlns="http://www.w3.org/2000/svg" xmlns:xlink="http://www.w3.org/1999/xlink" viewBox="0,0,256,256" width="50px" height="50px" fill-rule="nonzero"><g fill="#ffd700" fill-rule="nonzero" stroke="none" stroke-width="1" stroke-linecap="butt" stroke-linejoin="miter" stroke-miterlimit="10" stroke-dasharray="" stroke-dashoffset="0" font-family="none" font-weight="none" font-size="none" text-anchor="none" style="mix-blend-mode: normal"><g transform="scale(5.12,5.12)"><path d="M3.125,23.16016l5.05859,-8.67969c0.04688,-0.08594 0.10938,-0.16406 0.17969,-0.22656l9.07813,-8.46094c0.09766,-0.08984 0.21484,-0.16016 0.33984,-0.20703l7.79688,-2.86328l6.57422,4.59375l-3.27344,10.40625l-12.28125,11.41016l-10.01562,2.24609zM7.29688,33.26953l4.67188,13.35938l3.84375,-15.27344zM42.48438,2.875l-7.41016,4.11719l12.28125,8.91797c0.25781,-1.14844 0.55859,-2.71484 0.62891,-4.04687c-0.00391,-0.01562 -0.00391,-0.03516 -0.00391,-0.05469c0.03906,-1.89844 -0.27344,-3.88281 -1.30469,-5.59766c-0.92578,-1.54297 -2.31641,-2.67187 -4.14062,-3.38281c-0.01562,0.01563 -0.02734,0.03516 -0.05078,0.04688zM34.375,35.57813l-5.07812,-15.51953l-10.30859,9.58594zM31.14453,19.26953l5.04297,15.41016c3.94531,-4.29297 7.98438,-9.43359 10.28906,-15.75391zM45.38281,16.94922l-11.53125,-8.37109l-2.73437,8.69141zM5.76172,34.9375l-3.42578,5.87891c1.17188,5.42578 5.23047,6.64063 7.90625,6.9375zM4.87891,32.48438l-2.87891,-6.83984v11.77734zM39.92188,2.01172c-0.01562,-0.00391 -0.03125,-0.01172 -0.05078,-0.01172h-11.83203l5.27344,3.6875zM17.875,31.35547l-4.09766,16.27734c8.33203,-1.22656 14.58203,-5.70312 19.64844,-10.27734zM44.54688,45.64844c-0.23437,0 -0.47266,-0.08203 -0.66406,-0.25l-8.26562,-7.33984c-3.63281,3.37109 -7.875,6.79688 -13.09766,9.10547l22.04297,-1.49609c0.12891,-0.00781 0.25,-0.04687 0.36328,-0.09766c-0.12109,0.05078 -0.25,0.07813 -0.37891,0.07813zM37.0625,36.66797l8.14844,7.23438c0.17188,0.15234 0.26172,0.35156 0.30078,0.55859l1.68359,-22.04687c-2.61328,5.66406 -6.45312,10.31641 -10.13281,14.25391z"></path></g></g></svg>